<svg width="100" height="100" viewBox="0 0 100 100" fill="none" xmlns="http://www.w3.org/2000/svg">
  <rect width="100" height="100" rx="20" fill="#2C2F33" />
  <path d="M30 15C30 15 70 35 70 50C70 65 30 85 30 85" stroke="#FF4500" strokeWidth="8" strokeLinecap="round" />
  <path d="M70 15C70 15 30 35 30 50C30 65 70 85 70 85" stroke="#7DBBE6" strokeWidth="8" strokeLinecap="round" />
  <rect x="20" y="20" width="20" height="25" rx="2" fill="#FF4500" />
  <rect x="60" y="55" width="20" height="25" rx="2" fill="#7DBBE6" />
  <rect x="23" y="25" width="14" height="2" rx="1" fill="white" />
  <rect x="23" y="29" width="14" height="2" rx="1" fill="white" />
  <rect x="23" y="33" width="14" height="2" rx="1" fill="white" />
  <rect x="63" y="60" width="14" height="2" rx="1" fill="white" />
  <rect x="63" y="64" width="14" height="2" rx="1" fill="white" />
  <rect x="63" y="68" width="14" height="2" rx="1" fill="white" />
</svg>